<?xml version="1.0" standalone="no"?>
<!DOCTYPE svg PUBLIC "-//W3C//DTD SVG 20010904//EN"
 "http://www.w3.org/TR/2001/REC-SVG-20010904/DTD/svg10.dtd">
<svg version="1.0" xmlns="http://www.w3.org/2000/svg"
 width="1024.000000pt" height="1024.000000pt" viewBox="0 0 1024.000000 1024.000000"
 preserveAspectRatio="xMidYMid meet">

<g transform="translate(0.000000,1024.000000) scale(0.100000,-0.100000)"
fill="#000000" stroke="none">
<path d="M4495 9428 c-659 -25 -1332 -224 -1884 -557 -262 -159 -499 -348
-726 -582 -120 -124 -305 -338 -305 -354 0 -3 44 34 98 83 496 456 1082 768
1722 915 893 206 1813 55 2578 -422 187 -118 441 -316 424 -333 -4 -3 -164
-57 -357 -118 -192 -61 -361 -115 -375 -120 -14 -5 472 -9 1098 -9 l1123 -1
-63 77 c-97 119 -369 387 -505 497 -504 411 -1094 695 -1724 831 -365 78 -715
108 -1104 93z"/>
<path d="M984 7563 c4 -9 82 -150 175 -312 170 -300 404 -713 860 -1520 138
-245 251 -448 251 -453 0 -4 5 -8 10 -8 7 0 10 217 10 630 l0 629 -118 208
c-66 114 -127 223 -136 241 l-17 32 401 0 400 0 0 -1341 0 -1340 267 -432
c146 -238 288 -468 315 -511 l48 -79 0 1856 0 1857 295 0 295 0 0 -2308 c0
-1335 4 -2312 9 -2317 5 -6 95 -156 201 -335 306 -516 412 -694 421 -704 5 -5
9 1393 9 3107 l0 3117 -1851 0 c-1731 0 -1851 -1 -1845 -17z"/>
<path d="M4990 4475 c0 -1708 3 -3105 8 -3105 4 0 15 17 25 38 19 37 172 311
439 781 l138 243 0 1434 0 1434 877 2 878 3 136 240 c75 132 356 629 624 1105
269 476 497 880 508 898 l19 32 -1826 0 -1826 0 0 -3105z m2600 2540 c0 -7
-580 -1067 -592 -1082 -8 -10 -161 -13 -704 -13 l-694 0 0 550 0 550 995 0
c547 0 995 -2 995 -5z"/>
<path d="M966 6892 c-124 -276 -213 -545 -265 -798 -99 -486 -92 -1030 19
-1531 219 -987 826 -1867 1690 -2449 473 -319 974 -521 1578 -638 186 -36 197
-32 46 19 -385 130 -735 325 -1099 614 -162 129 -468 435 -599 601 -565 714
-879 1550 -903 2406 -6 191 8 440 26 471 4 9 93 -57 285 -212 154 -124 283
-228 288 -231 11 -7 -14 39 -385 701 -462 825 -628 1119 -636 1127 -3 4 -24
-32 -45 -80z"/>
<path d="M8500 6787 c0 -15 11 -92 24 -170 39 -225 50 -376 43 -611 -20 -683
-237 -1422 -579 -1973 -295 -474 -680 -851 -1238 -1215 -197 -128 -456 -276
-465 -266 -1 2 21 154 50 338 29 184 56 355 60 380 6 41 6 43 -7 25 -8 -11
-113 -195 -233 -410 -120 -214 -339 -604 -485 -865 -317 -563 -315 -560 -296
-560 22 0 271 58 388 90 567 157 1138 451 1587 816 127 103 425 403 532 534
195 239 343 467 479 735 266 523 400 1062 417 1675 9 343 -27 677 -108 1001
-39 157 -126 427 -154 478 l-14 26 -1 -28z"/>
</g>
</svg>
